<?xml version="1.0" encoding="UTF-8" standalone="no"?>
<svg
   xmlns:dc="http://purl.org/dc/elements/1.1/"
   xmlns:cc="http://creativecommons.org/ns#"
   xmlns:rdf="http://www.w3.org/1999/02/22-rdf-syntax-ns#"
   xmlns:svg="http://www.w3.org/2000/svg"
   xmlns="http://www.w3.org/2000/svg"
   id="svg8"
   version="1.1"
   viewBox="0 0 290 100"
   height="100mm"
   width="290mm">
  <defs
     id="defs2" />
  <metadata
     id="metadata5">
    <rdf:RDF>
      <cc:Work
         rdf:about="">
        <dc:format>image/svg+xml</dc:format>
        <dc:type
           rdf:resource="http://purl.org/dc/dcmitype/StillImage" />
        <dc:title></dc:title>
      </cc:Work>
    </rdf:RDF>
  </metadata>
  <g
     transform="translate(0,-197)"
     id="layer1">
    <path
       id="path915"
       d="m 42.612569,247 v -50 h 2.040814 2.040824 v 50 50 H 44.653383 42.612569 Z M 1.0099315,280.20579 c 0.308715,-0.72494 6.753518,-16.19712 14.3217655,-34.38266 l 13.760469,-33.06461 0.04359,12.74148 0.04359,12.74151 -3.912599,9.77639 c -2.15194,5.37701 -3.9126,9.83492 -3.9126,9.90645 0,0.0715 1.7602,0.12996 3.91155,0.12996 h 3.91158 v 4.67688 4.67687 h -5.841088 -5.841118 l -2.789854,7.05594 -2.789825,7.05595 -5.7333505,0.002 -5.733351,0.002 0.561328,-1.31804 z m 277.4013585,-25.91711 -11.05383,-12.09905 -0.0438,11.33375 -0.0438,11.33376 h -2.80492 -2.80492 V 246.22977 227.6024 l 7.18537,7.87309 c 3.95196,4.33021 8.94557,9.80613 11.09695,12.16871 l 3.91155,4.29559 0.0438,-11.31343 0.0438,-11.31343 h 2.80492 2.8049 v 18.5374 c 0,10.19559 -0.0201,18.53742 -0.043,18.53742 -0.0237,0 -5.01732,-5.44458 -11.09694,-12.09907 z M 65.278365,264.55951 c 0.07308,-0.25198 13.928448,-33.57635 14.961232,-35.98435 0.237987,-0.55487 0.394349,-0.74869 0.480192,-0.59523 0.09617,0.17194 14.829651,35.60148 15.247073,36.66464 0.06488,0.1653 -0.596537,0.21257 -2.972198,0.21257 h -3.055663 l -1.511856,-3.82595 -1.511846,-3.82592 -6.29253,8.4e-4 -6.292521,8.6e-4 -1.518214,3.82514 -1.518224,3.82515 h -3.050914 c -2.825204,0 -3.044556,-0.0221 -2.964531,-0.29763 z m 19.511066,-12.45627 c 0,-0.14783 -4.051997,-10.39709 -4.151147,-10.5001 -0.04698,-0.0488 -4.006331,9.84483 -4.131792,10.32459 -0.08857,0.3389 -0.02349,0.34438 4.096433,0.34438 2.657565,0 4.186506,-0.0617 4.186506,-0.16893 z m 25.680279,-5.03056 v -17.7845 l 6.59013,0.0667 c 6.23958,0.0631 6.65792,0.087 7.86443,0.44958 1.94752,0.58525 3.17827,1.31495 4.61148,2.73407 1.51123,1.49642 2.48677,3.30906 2.96483,5.50902 0.44852,2.06406 0.2858,5.50447 -0.34969,7.39293 -0.91216,2.71063 -2.889,5.02589 -5.22517,6.11965 -0.53678,0.2513 -0.9577,0.51171 -0.93538,0.57866 0.0223,0.0669 2.10692,2.89317 4.63243,6.28052 2.52552,3.38735 4.61734,6.22159 4.64852,6.29834 0.0311,0.0768 -1.34637,0.1386 -3.06123,0.13759 l -3.1179,-0.002 -4.49231,-6.0406 -4.49228,-6.0406 -1.9703,0.0476 -1.97029,0.0476 -0.0446,5.99489 -0.0446,5.9949 h -2.80392 -2.80395 z m 12.37915,0.61439 c 3.50471,-0.66466 5.42605,-3.80038 4.83083,-7.88412 -0.38335,-2.63019 -1.73246,-4.37846 -3.89399,-5.04611 -0.94758,-0.29266 -1.58174,-0.34187 -4.40534,-0.34187 h -3.29841 v 6.71768 6.71768 h 2.95298 c 1.62414,0 3.34041,-0.0735 3.81393,-0.1633 z m 26.56642,-0.60205 v -17.77209 h 2.72109 2.72109 v 17.77209 17.77212 h -2.72109 -2.72109 z m 29.88961,3.35885 c 4.82406,-7.9273 8.91922,-14.66199 9.10036,-14.96599 l 0.32934,-0.55271 h -7.07462 -7.07462 v -2.80612 -2.80612 h 12.07203 12.07203 l -1.94173,3.18878 c -1.06797,1.75381 -5.15627,8.46939 -9.08514,14.92347 l -7.1434,11.73469 8.83282,0.044 8.83285,0.044 v 2.8046 2.80461 h -13.84547 -13.84546 z m 46.04577,14.22614 c -2.24087,-0.31984 -5.05307,-1.42383 -7.21254,-2.83139 -1.25192,-0.81602 -4.02745,-3.60441 -4.86448,-4.88701 -3.6959,-5.66337 -3.94956,-13.17192 -0.63202,-18.7101 2.56988,-4.29014 6.27568,-7.1047 11.00835,-8.36091 1.50261,-0.39884 2.01761,-0.45141 4.42178,-0.45141 2.40615,0 2.91793,0.0522 4.42176,0.45224 6.36973,1.69377 11.08806,6.41209 12.78183,12.78183 0.39989,1.50386 0.45224,2.01561 0.45224,4.42176 0,2.40672 -0.0522,2.91713 -0.45206,4.41779 -2.36579,8.87966 -10.8203,14.46676 -19.92486,13.1672 z m 5.59285,-5.76029 c 3.49263,-0.89327 6.59451,-3.40311 8.09723,-6.55174 0.91155,-1.90999 1.24907,-3.61805 1.14215,-5.77974 -0.051,-1.0308 -0.22217,-2.29508 -0.38037,-2.80954 -1.301,-4.23045 -4.67346,-7.44866 -8.9351,-8.52633 -1.97653,-0.49982 -4.60079,-0.39479 -6.53717,0.26163 -3.68474,1.24911 -6.51312,4.04517 -7.85032,7.7606 -0.41293,1.1473 -0.45812,1.50665 -0.46995,3.7354 -0.0121,2.15244 0.0374,2.61735 0.38404,3.65646 1.73851,5.21177 6.25308,8.54832 11.60798,8.57908 1.09369,0.006 2.06272,-0.10104 2.94151,-0.32582 z"
       style="fill:#333333;stroke-width:0.17006801" />
  </g>
</svg>
