<svg  height="512" viewBox="0 0 512 512" width="512" xmlns="http://www.w3.org/2000/svg">
<path fill="#F26B00"  d="m482 308.854v-105.708c17.124-3.685 30-18.937 30-37.146 0-30.082-33.396-48.061-58.425-32.041l-75.534-75.534c16.022-25.032-1.962-58.425-32.041-58.425-23.583 0-41.671 21.426-37.369 44.87l-87.914 36.533-22.792-22.793c16.121-24.855-1.595-58.61-31.925-58.61-30.043 0-48.086 33.356-32.041 58.426l-75.534 75.534c-25.035-16.025-58.425 1.967-58.425 32.04 0 23.629 21.466 41.66 44.87 37.369l21.871 52.631-21.871 52.631c-23.489-4.31-44.87 13.831-44.87 37.369 0 30.082 33.396 48.061 58.425 32.041l75.534 75.534c-16.024 25.035 1.968 58.425 32.041 58.425 18.209 0 33.46-12.876 37.145-30h105.709c3.685 17.124 18.937 30 37.145 30 20.953 0 38-17.047 38-38s-17.047-38-38-38c-18.209 0-33.46 12.876-37.145 30h-102.765l236.685-98.354c20.988 30.377 69.226 15.604 69.226-21.646 0-18.209-12.876-33.46-30-37.146zm-406.615 30.365 22.14-9.14 45.813 110.246-73.529-73.529c5.383-8.191 7.3-18.046 5.576-27.577zm208.584-171.936-34.096 82.592-143.698 59.323-22.107-53.198 50.475-121.463 82.425-34.256zm76.763 54.135 45.093-18.616 45.299 109.008zm59.883-24.722 22.103-9.125c5.485 7.986 13.802 13.549 23.282 15.573v102.767zm16-23.915-22.14 9.14-45.813-110.245 73.529 73.529c-5.383 8.19-7.3 18.045-5.576 27.576zm-97.392-97.396c4.414.799 8.948.846 13.647-.016l46.815 112.658-51.205 21.139-45.645-45.645zm-6.759 140.393-61.724 25.482 25.482-61.723zm-91.206 54.963-68.477 165.875c-4.559-.824-9.088-.821-13.651.016l-46.816-112.658zm-44.045 181.62c-2.612-3.752-5.889-7.021-9.649-9.625l74.562-180.609 82.59-34.096 97.36 97.36c-5.366 8.273-7.165 18.104-5.443 27.482zm117.573-392.723c2.612 3.753 5.891 7.024 9.653 9.628l-33.858 82-57.628-57.628zm-171.542 53.959 15.886-38.229c9.397 1.725 19.224-.089 27.48-5.444l18.121 18.121zm-71.568 29.741 71.662-71.662-21.037 50.625zm-12.031 53.89c12.23-8.449 18.441-23.284 15.725-38.098l38.229-15.888-38.194 91.911zm31.74 118.076-22.121 9.132c-2.604-3.76-5.874-7.038-9.625-9.65l15.766-37.938z"/>

</svg>
